<?xml version="1.0" standalone="no"?><svg xmlns="http://www.w3.org/2000/svg" viewBox="0 0 1440 320"><path fill="#ffffff" fill-opacity="1" d="M0,96L24,90.7C48,85,96,75,144,106.7C192,139,240,213,288,240C336,267,384,245,432,218.7C480,192,528,160,576,170.7C624,181,672,235,720,256C768,277,816,267,864,234.7C912,203,960,149,1008,122.7C1056,96,1104,96,1152,106.7C1200,117,1248,139,1296,138.7C1344,139,1392,117,1416,106.7L1440,96L1440,320L1416,320C1392,320,1344,320,1296,320C1248,320,1200,320,1152,320C1104,320,1056,320,1008,320C960,320,912,320,864,320C816,320,768,320,720,320C672,320,624,320,576,320C528,320,480,320,432,320C384,320,336,320,288,320C240,320,192,320,144,320C96,320,48,320,24,320L0,320Z"></path></svg>